<?xml version="1.0" encoding="UTF-8" standalone="no"?>
<!DOCTYPE svg PUBLIC "-//W3C//DTD SVG 1.1//EN"
 "http://www.w3.org/Graphics/SVG/1.1/DTD/svg11.dtd">
<!-- Generated by graphviz version 2.40.1 (20161225.0304)
 -->
<!-- Title: G Pages: 1 -->
<svg width="422pt" height="908pt"
 viewBox="0.00 0.00 422.00 908.00" xmlns="http://www.w3.org/2000/svg" xmlns:xlink="http://www.w3.org/1999/xlink">
<g id="graph0" class="graph" transform="scale(1 1) rotate(0) translate(4 904)">
<title>G</title>
<polygon fill="#ffffff" stroke="transparent" points="-4,4 -4,-904 418,-904 418,4 -4,4"/>
<!-- v0 -->
<g id="node1" class="node">
<title>v0</title>
<ellipse fill="#705f84" stroke="#000000" cx="95" cy="-882" rx="27" ry="18"/>
<text text-anchor="middle" x="95" y="-877.8" font-family="Times,serif" font-size="14.00" fill="#ffffff">v0</text>
</g>
<!-- v3 -->
<g id="node2" class="node">
<title>v3</title>
<ellipse fill="#705f84" stroke="#000000" cx="207" cy="-810" rx="27" ry="18"/>
<text text-anchor="middle" x="207" y="-805.8" font-family="Times,serif" font-size="14.00" fill="#ffffff">v3</text>
</g>
<!-- v0&#45;&#45;v3 -->
<g id="edge1" class="edge">
<title>v0&#45;&#45;v3</title>
<path fill="none" stroke="#000000" d="M114.5089,-869.4586C134.9404,-856.324 166.8506,-835.8104 187.3389,-822.6393"/>
</g>
<!-- v5 -->
<g id="node3" class="node">
<title>v5</title>
<ellipse fill="#705f84" stroke="#000000" cx="207" cy="-666" rx="27" ry="18"/>
<text text-anchor="middle" x="207" y="-661.8" font-family="Times,serif" font-size="14.00" fill="#ffffff">v5</text>
</g>
<!-- v0&#45;&#45;v5 -->
<g id="edge2" class="edge">
<title>v0&#45;&#45;v5</title>
<path fill="none" stroke="#000000" d="M106.1609,-865.3951C112.9421,-854.9228 121.5131,-840.9712 128,-828 151.1089,-781.7916 146.9841,-765.7435 171,-720 177.9135,-706.8316 187.2688,-692.8862 194.7096,-682.4661"/>
</g>
<!-- v7 -->
<g id="node4" class="node">
<title>v7</title>
<ellipse fill="#705f84" stroke="#000000" cx="207" cy="-522" rx="27" ry="18"/>
<text text-anchor="middle" x="207" y="-517.8" font-family="Times,serif" font-size="14.00" fill="#ffffff">v7</text>
</g>
<!-- v0&#45;&#45;v7 -->
<g id="edge3" class="edge">
<title>v0&#45;&#45;v7</title>
<path fill="none" stroke="#000000" d="M98.9368,-863.9156C104.502,-836.7281 114,-783.6422 114,-738 114,-738 114,-738 114,-666 114,-610.6455 163.0941,-559.7114 189.9424,-535.9956"/>
</g>
<!-- v9 -->
<g id="node5" class="node">
<title>v9</title>
<ellipse fill="#705f84" stroke="#000000" cx="207" cy="-378" rx="27" ry="18"/>
<text text-anchor="middle" x="207" y="-373.8" font-family="Times,serif" font-size="14.00" fill="#ffffff">v9</text>
</g>
<!-- v0&#45;&#45;v9 -->
<g id="edge4" class="edge">
<title>v0&#45;&#45;v9</title>
<path fill="none" stroke="#000000" d="M91.0632,-863.9156C85.498,-836.7281 76,-783.6422 76,-738 76,-738 76,-738 76,-522 76,-457.7854 148.1603,-409.5681 185.368,-388.9742"/>
</g>
<!-- v11 -->
<g id="node6" class="node">
<title>v11</title>
<ellipse fill="#705f84" stroke="#000000" cx="207" cy="-234" rx="27" ry="18"/>
<text text-anchor="middle" x="207" y="-229.8" font-family="Times,serif" font-size="14.00" fill="#ffffff">v11</text>
</g>
<!-- v0&#45;&#45;v11 -->
<g id="edge5" class="edge">
<title>v0&#45;&#45;v11</title>
<path fill="none" stroke="#000000" d="M83.7386,-865.5531C67.1271,-839.6458 38,-787.2038 38,-738 38,-738 38,-738 38,-378 38,-303.0266 135.5542,-258.8545 182.4259,-241.9581"/>
</g>
<!-- v13 -->
<g id="node7" class="node">
<title>v13</title>
<ellipse fill="#705f84" stroke="#000000" cx="207" cy="-90" rx="27" ry="18"/>
<text text-anchor="middle" x="207" y="-85.8" font-family="Times,serif" font-size="14.00" fill="#ffffff">v13</text>
</g>
<!-- v0&#45;&#45;v13 -->
<g id="edge6" class="edge">
<title>v0&#45;&#45;v13</title>
<path fill="none" stroke="#000000" d="M77.5755,-868.0836C50.1498,-844.4817 0,-793.7076 0,-738 0,-738 0,-738 0,-234 0,-146.882 125.0825,-108.1913 180.7833,-95.2809"/>
</g>
<!-- v4 -->
<g id="node10" class="node">
<title>v4</title>
<ellipse fill="none" stroke="#000000" cx="207" cy="-738" rx="27" ry="18"/>
<text text-anchor="middle" x="207" y="-733.8" font-family="Times,serif" font-size="14.00" fill="#000000">v4</text>
</g>
<!-- v3&#45;&#45;v4 -->
<g id="edge14" class="edge">
<title>v3&#45;&#45;v4</title>
<path fill="none" stroke="#000000" d="M207,-791.8314C207,-781 207,-767.2876 207,-756.4133"/>
</g>
<!-- v6 -->
<g id="node11" class="node">
<title>v6</title>
<ellipse fill="none" stroke="#000000" cx="207" cy="-594" rx="27" ry="18"/>
<text text-anchor="middle" x="207" y="-589.8" font-family="Times,serif" font-size="14.00" fill="#000000">v6</text>
</g>
<!-- v5&#45;&#45;v6 -->
<g id="edge16" class="edge">
<title>v5&#45;&#45;v6</title>
<path fill="none" stroke="#000000" d="M207,-647.8314C207,-637 207,-623.2876 207,-612.4133"/>
</g>
<!-- v8 -->
<g id="node12" class="node">
<title>v8</title>
<ellipse fill="none" stroke="#000000" cx="207" cy="-450" rx="27" ry="18"/>
<text text-anchor="middle" x="207" y="-445.8" font-family="Times,serif" font-size="14.00" fill="#000000">v8</text>
</g>
<!-- v7&#45;&#45;v8 -->
<g id="edge18" class="edge">
<title>v7&#45;&#45;v8</title>
<path fill="none" stroke="#000000" d="M207,-503.8314C207,-493 207,-479.2876 207,-468.4133"/>
</g>
<!-- v10 -->
<g id="node13" class="node">
<title>v10</title>
<ellipse fill="none" stroke="#000000" cx="207" cy="-306" rx="27" ry="18"/>
<text text-anchor="middle" x="207" y="-301.8" font-family="Times,serif" font-size="14.00" fill="#000000">v10</text>
</g>
<!-- v9&#45;&#45;v10 -->
<g id="edge20" class="edge">
<title>v9&#45;&#45;v10</title>
<path fill="none" stroke="#000000" d="M207,-359.8314C207,-349 207,-335.2876 207,-324.4133"/>
</g>
<!-- v12 -->
<g id="node14" class="node">
<title>v12</title>
<ellipse fill="none" stroke="#000000" cx="207" cy="-162" rx="27" ry="18"/>
<text text-anchor="middle" x="207" y="-157.8" font-family="Times,serif" font-size="14.00" fill="#000000">v12</text>
</g>
<!-- v11&#45;&#45;v12 -->
<g id="edge22" class="edge">
<title>v11&#45;&#45;v12</title>
<path fill="none" stroke="#000000" d="M207,-215.8314C207,-205 207,-191.2876 207,-180.4133"/>
</g>
<!-- v14 -->
<g id="node15" class="node">
<title>v14</title>
<ellipse fill="none" stroke="#000000" cx="207" cy="-18" rx="27" ry="18"/>
<text text-anchor="middle" x="207" y="-13.8" font-family="Times,serif" font-size="14.00" fill="#000000">v14</text>
</g>
<!-- v13&#45;&#45;v14 -->
<g id="edge24" class="edge">
<title>v13&#45;&#45;v14</title>
<path fill="none" stroke="#000000" d="M207,-71.8314C207,-61 207,-47.2876 207,-36.4133"/>
</g>
<!-- v1 -->
<g id="node8" class="node">
<title>v1</title>
<ellipse fill="#705f84" stroke="#000000" cx="319" cy="-882" rx="27" ry="18"/>
<text text-anchor="middle" x="319" y="-877.8" font-family="Times,serif" font-size="14.00" fill="#ffffff">v1</text>
</g>
<!-- v1&#45;&#45;v3 -->
<g id="edge7" class="edge">
<title>v1&#45;&#45;v3</title>
<path fill="none" stroke="#000000" d="M299.4911,-869.4586C279.0596,-856.324 247.1494,-835.8104 226.6611,-822.6393"/>
</g>
<!-- v1&#45;&#45;v5 -->
<g id="edge8" class="edge">
<title>v1&#45;&#45;v5</title>
<path fill="none" stroke="#000000" d="M307.8391,-865.3951C301.0579,-854.9228 292.4869,-840.9712 286,-828 262.8911,-781.7916 267.0159,-765.7435 243,-720 236.0865,-706.8316 226.7312,-692.8862 219.2904,-682.4661"/>
</g>
<!-- v1&#45;&#45;v7 -->
<g id="edge9" class="edge">
<title>v1&#45;&#45;v7</title>
<path fill="none" stroke="#000000" d="M315.0632,-863.9156C309.498,-836.7281 300,-783.6422 300,-738 300,-738 300,-738 300,-666 300,-610.6455 250.9059,-559.7114 224.0576,-535.9956"/>
</g>
<!-- v1&#45;&#45;v9 -->
<g id="edge10" class="edge">
<title>v1&#45;&#45;v9</title>
<path fill="none" stroke="#000000" d="M322.9368,-863.9156C328.502,-836.7281 338,-783.6422 338,-738 338,-738 338,-738 338,-522 338,-457.7854 265.8397,-409.5681 228.632,-388.9742"/>
</g>
<!-- v1&#45;&#45;v11 -->
<g id="edge11" class="edge">
<title>v1&#45;&#45;v11</title>
<path fill="none" stroke="#000000" d="M330.2614,-865.5531C346.8729,-839.6458 376,-787.2038 376,-738 376,-738 376,-738 376,-378 376,-303.0266 278.4458,-258.8545 231.5741,-241.9581"/>
</g>
<!-- v1&#45;&#45;v13 -->
<g id="edge12" class="edge">
<title>v1&#45;&#45;v13</title>
<path fill="none" stroke="#000000" d="M336.4245,-868.0836C363.8502,-844.4817 414,-793.7076 414,-738 414,-738 414,-738 414,-234 414,-146.882 288.9175,-108.1913 233.2167,-95.2809"/>
</g>
<!-- v2 -->
<g id="node9" class="node">
<title>v2</title>
<ellipse fill="none" stroke="#000000" cx="207" cy="-882" rx="27" ry="18"/>
<text text-anchor="middle" x="207" y="-877.8" font-family="Times,serif" font-size="14.00" fill="#000000">v2</text>
</g>
<!-- v2&#45;&#45;v3 -->
<g id="edge13" class="edge">
<title>v2&#45;&#45;v3</title>
<path fill="none" stroke="#000000" d="M207,-863.8314C207,-853 207,-839.2876 207,-828.4133"/>
</g>
<!-- v4&#45;&#45;v5 -->
<g id="edge15" class="edge">
<title>v4&#45;&#45;v5</title>
<path fill="none" stroke="#000000" d="M207,-719.8314C207,-709 207,-695.2876 207,-684.4133"/>
</g>
<!-- v6&#45;&#45;v7 -->
<g id="edge17" class="edge">
<title>v6&#45;&#45;v7</title>
<path fill="none" stroke="#000000" d="M207,-575.8314C207,-565 207,-551.2876 207,-540.4133"/>
</g>
<!-- v8&#45;&#45;v9 -->
<g id="edge19" class="edge">
<title>v8&#45;&#45;v9</title>
<path fill="none" stroke="#000000" d="M207,-431.8314C207,-421 207,-407.2876 207,-396.4133"/>
</g>
<!-- v10&#45;&#45;v11 -->
<g id="edge21" class="edge">
<title>v10&#45;&#45;v11</title>
<path fill="none" stroke="#000000" d="M207,-287.8314C207,-277 207,-263.2876 207,-252.4133"/>
</g>
<!-- v12&#45;&#45;v13 -->
<g id="edge23" class="edge">
<title>v12&#45;&#45;v13</title>
<path fill="none" stroke="#000000" d="M207,-143.8314C207,-133 207,-119.2876 207,-108.4133"/>
</g>
</g>
</svg>
