<?xml version="1.0" encoding="UTF-8" standalone="no"?>
<!DOCTYPE svg PUBLIC "-//W3C//DTD SVG 1.1//EN"
 "http://www.w3.org/Graphics/SVG/1.1/DTD/svg11.dtd">
<!-- Generated by graphviz version 2.40.1 (20161225.0304)
 -->
<!-- Title: G Pages: 1 -->
<svg width="1182pt" height="1124pt"
 viewBox="0.00 0.00 1182.00 1124.00" xmlns="http://www.w3.org/2000/svg" xmlns:xlink="http://www.w3.org/1999/xlink">
<g id="graph0" class="graph" transform="scale(1 1) rotate(0) translate(4 1120)">
<title>G</title>
<polygon fill="#ffffff" stroke="transparent" points="-4,4 -4,-1120 1178,-1120 1178,4 -4,4"/>
<!-- v0 -->
<g id="node1" class="node">
<title>v0</title>
<ellipse fill="none" stroke="#000000" cx="851" cy="-1098" rx="27" ry="18"/>
<text text-anchor="middle" x="851" y="-1093.8" font-family="Times,serif" font-size="14.00" fill="#000000">v0</text>
</g>
<!-- v1 -->
<g id="node2" class="node">
<title>v1</title>
<ellipse fill="#ff0000" stroke="#000000" cx="718" cy="-1026" rx="27" ry="18"/>
<text text-anchor="middle" x="718" y="-1021.8" font-family="Times,serif" font-size="14.00" fill="#000000">v1</text>
</g>
<!-- v0&#45;&#45;v1 -->
<g id="edge1" class="edge">
<title>v0&#45;&#45;v1</title>
<path fill="none" stroke="#000000" d="M829.9258,-1086.5914C805.0218,-1073.1096 763.8365,-1050.8138 738.9756,-1037.3552"/>
</g>
<!-- v3 -->
<g id="node3" class="node">
<title>v3</title>
<ellipse fill="#ff0000" stroke="#000000" cx="608" cy="-882" rx="27" ry="18"/>
<text text-anchor="middle" x="608" y="-877.8" font-family="Times,serif" font-size="14.00" fill="#000000">v3</text>
</g>
<!-- v0&#45;&#45;v3 -->
<g id="edge2" class="edge">
<title>v0&#45;&#45;v3</title>
<path fill="none" stroke="#000000" d="M824.4849,-1094.5764C789.2155,-1088.9619 726.1875,-1075.1387 682,-1044 649.0837,-1020.8041 643.7937,-1008.5992 627,-972 616.2108,-948.4868 611.4681,-918.6918 609.4399,-899.9814"/>
</g>
<!-- v4 -->
<g id="node4" class="node">
<title>v4</title>
<ellipse fill="#ff0000" stroke="#000000" cx="270" cy="-810" rx="27" ry="18"/>
<text text-anchor="middle" x="270" y="-805.8" font-family="Times,serif" font-size="14.00" fill="#000000">v4</text>
</g>
<!-- v0&#45;&#45;v4 -->
<g id="edge3" class="edge">
<title>v0&#45;&#45;v4</title>
<path fill="none" stroke="#000000" d="M824.6084,-1093.9306C783.9485,-1087.067 704.0836,-1071.2083 641,-1044 494.1584,-980.6665 338.5782,-863.778 287.4078,-823.816"/>
</g>
<!-- v6 -->
<g id="node5" class="node">
<title>v6</title>
<ellipse fill="#ff0000" stroke="#000000" cx="494" cy="-666" rx="27" ry="18"/>
<text text-anchor="middle" x="494" y="-661.8" font-family="Times,serif" font-size="14.00" fill="#000000">v6</text>
</g>
<!-- v0&#45;&#45;v6 -->
<g id="edge4" class="edge">
<title>v0&#45;&#45;v6</title>
<path fill="none" stroke="#000000" d="M844.4545,-1080.3867C832.4774,-1049.4355 805.014,-984.0209 770,-936 688.4482,-824.1536 558.8777,-717.0662 511.8194,-679.8352"/>
</g>
<!-- v8 -->
<g id="node6" class="node">
<title>v8</title>
<ellipse fill="#ff0000" stroke="#000000" cx="646" cy="-522" rx="27" ry="18"/>
<text text-anchor="middle" x="646" y="-517.8" font-family="Times,serif" font-size="14.00" fill="#000000">v8</text>
</g>
<!-- v0&#45;&#45;v8 -->
<g id="edge5" class="edge">
<title>v0&#45;&#45;v8</title>
<path fill="none" stroke="#000000" d="M849.3471,-1079.6604C844.7245,-1026.7297 832,-869.1197 832,-738 832,-738 832,-738 832,-666 832,-585.7531 722.4132,-543.8564 671.4725,-528.7159"/>
</g>
<!-- v10 -->
<g id="node7" class="node">
<title>v10</title>
<ellipse fill="#ff0000" stroke="#000000" cx="722" cy="-378" rx="27" ry="18"/>
<text text-anchor="middle" x="722" y="-373.8" font-family="Times,serif" font-size="14.00" fill="#000000">v10</text>
</g>
<!-- v0&#45;&#45;v10 -->
<g id="edge6" class="edge">
<title>v0&#45;&#45;v10</title>
<path fill="none" stroke="#000000" d="M862.2614,-1081.5531C878.8729,-1055.6458 908,-1003.2038 908,-954 908,-954 908,-954 908,-882 908,-784.5257 870,-763.4743 870,-666 870,-666 870,-666 870,-522 870,-453.1685 786.75,-406.5842 745.125,-387.5941"/>
</g>
<!-- v12 -->
<g id="node8" class="node">
<title>v12</title>
<ellipse fill="#ff0000" stroke="#000000" cx="777" cy="-234" rx="27" ry="18"/>
<text text-anchor="middle" x="777" y="-229.8" font-family="Times,serif" font-size="14.00" fill="#000000">v12</text>
</g>
<!-- v0&#45;&#45;v12 -->
<g id="edge7" class="edge">
<title>v0&#45;&#45;v12</title>
<path fill="none" stroke="#000000" d="M868.4245,-1084.0836C895.8502,-1060.4817 946,-1009.7076 946,-954 946,-954 946,-954 946,-378 946,-303.0266 848.4458,-258.8545 801.5741,-241.9581"/>
</g>
<!-- v14 -->
<g id="node9" class="node">
<title>v14</title>
<ellipse fill="#ff0000" stroke="#000000" cx="777" cy="-90" rx="27" ry="18"/>
<text text-anchor="middle" x="777" y="-85.8" font-family="Times,serif" font-size="14.00" fill="#000000">v14</text>
</g>
<!-- v0&#45;&#45;v14 -->
<g id="edge8" class="edge">
<title>v0&#45;&#45;v14</title>
<path fill="none" stroke="#000000" d="M872.9622,-1087.1147C910.738,-1066.6618 984,-1018.6604 984,-954 984,-954 984,-954 984,-378 984,-249.9236 847.3477,-139.8464 796.103,-103.0701"/>
</g>
<!-- v2 -->
<g id="node10" class="node">
<title>v2</title>
<ellipse fill="none" stroke="#000000" cx="663" cy="-954" rx="27" ry="18"/>
<text text-anchor="middle" x="663" y="-949.8" font-family="Times,serif" font-size="14.00" fill="#000000">v2</text>
</g>
<!-- v1&#45;&#45;v2 -->
<g id="edge9" class="edge">
<title>v1&#45;&#45;v2</title>
<path fill="none" stroke="#000000" d="M705.5196,-1009.6621C696.5186,-997.8788 684.4207,-982.0416 675.431,-970.2733"/>
</g>
<!-- v15 -->
<g id="node11" class="node">
<title>v15</title>
<ellipse fill="none" stroke="#000000" cx="133" cy="-18" rx="27" ry="18"/>
<text text-anchor="middle" x="133" y="-13.8" font-family="Times,serif" font-size="14.00" fill="#000000">v15</text>
</g>
<!-- v1&#45;&#45;v15 -->
<g id="edge10" class="edge">
<title>v1&#45;&#45;v15</title>
<path fill="none" stroke="#000000" d="M691.0217,-1025.0138C595.7788,-1021.2667 275.8834,-1006.3518 180,-972 31.4605,-918.7833 0,-823.7847 0,-666 0,-666 0,-666 0,-162 0,-97.3396 73.262,-49.3382 111.0378,-28.8853"/>
</g>
<!-- v16 -->
<g id="node12" class="node">
<title>v16</title>
<ellipse fill="none" stroke="#000000" cx="665" cy="-18" rx="27" ry="18"/>
<text text-anchor="middle" x="665" y="-13.8" font-family="Times,serif" font-size="14.00" fill="#000000">v16</text>
</g>
<!-- v1&#45;&#45;v16 -->
<g id="edge11" class="edge">
<title>v1&#45;&#45;v16</title>
<path fill="none" stroke="#000000" d="M717.8635,-1007.725C717.9984,-967.8227 720.6917,-870.213 742,-792 751.2529,-758.0369 755.5517,-749.3407 775,-720 864.8563,-584.4382 1022,-612.6381 1022,-450 1022,-450 1022,-450 1022,-378 1022,-213.3053 951.5567,-161.0302 813,-72 773.8821,-46.8646 721.4528,-31.2993 690.6414,-23.678"/>
</g>
<!-- v17 -->
<g id="node13" class="node">
<title>v17</title>
<ellipse fill="none" stroke="#000000" cx="1003" cy="-18" rx="27" ry="18"/>
<text text-anchor="middle" x="1003" y="-13.8" font-family="Times,serif" font-size="14.00" fill="#000000">v17</text>
</g>
<!-- v1&#45;&#45;v17 -->
<g id="edge12" class="edge">
<title>v1&#45;&#45;v17</title>
<path fill="none" stroke="#000000" d="M723.0382,-1008.2896C732.103,-977.7404 752.7811,-913.6427 780,-864 921.4302,-606.0547 1136,-600.1739 1136,-306 1136,-306 1136,-306 1136,-162 1136,-97.3396 1062.738,-49.3382 1024.9622,-28.8853"/>
</g>
<!-- v18 -->
<g id="node14" class="node">
<title>v18</title>
<ellipse fill="none" stroke="#000000" cx="380" cy="-18" rx="27" ry="18"/>
<text text-anchor="middle" x="380" y="-13.8" font-family="Times,serif" font-size="14.00" fill="#000000">v18</text>
</g>
<!-- v1&#45;&#45;v18 -->
<g id="edge13" class="edge">
<title>v1&#45;&#45;v18</title>
<path fill="none" stroke="#000000" d="M691.2314,-1022.9078C569.728,-1008.5199 76,-946.1103 76,-882 76,-882 76,-882 76,-810 76,-580.3413 190,-535.6587 190,-306 190,-306 190,-306 190,-162 190,-115.5795 207.7066,-102.1536 243,-72 275.5579,-44.1836 324.161,-29.6499 353.8745,-22.9256"/>
</g>
<!-- v19 -->
<g id="node15" class="node">
<title>v19</title>
<ellipse fill="none" stroke="#000000" cx="1124" cy="-18" rx="27" ry="18"/>
<text text-anchor="middle" x="1124" y="-13.8" font-family="Times,serif" font-size="14.00" fill="#000000">v19</text>
</g>
<!-- v1&#45;&#45;v19 -->
<g id="edge14" class="edge">
<title>v1&#45;&#45;v19</title>
<path fill="none" stroke="#000000" d="M735.5963,-1012.2079C819.3986,-944.8355 1174,-640.0212 1174,-306 1174,-306 1174,-306 1174,-162 1174,-113.8352 1148.7284,-61.3725 1134.1182,-35.067"/>
</g>
<!-- v3&#45;&#45;v4 -->
<g id="edge16" class="edge">
<title>v3&#45;&#45;v4</title>
<path fill="none" stroke="#000000" d="M582.0389,-876.4698C519.1233,-863.0677 359.0561,-828.9705 296.0495,-815.549"/>
</g>
<!-- v3&#45;&#45;v15 -->
<g id="edge17" class="edge">
<title>v3&#45;&#45;v15</title>
<path fill="none" stroke="#000000" d="M580.9508,-879.8271C506.0514,-873.5384 297.3071,-854.0941 234,-828 129.5131,-784.9323 38,-779.0148 38,-666 38,-666 38,-666 38,-162 38,-106.2924 88.1498,-55.5183 115.5755,-31.9164"/>
</g>
<!-- v3&#45;&#45;v16 -->
<g id="edge18" class="edge">
<title>v3&#45;&#45;v16</title>
<path fill="none" stroke="#000000" d="M604.7601,-864.0905C595.5707,-811.6785 570,-653.9792 570,-522 570,-522 570,-522 570,-162 570,-106.2924 620.1498,-55.5183 647.5755,-31.9164"/>
</g>
<!-- v3&#45;&#45;v17 -->
<g id="edge19" class="edge">
<title>v3&#45;&#45;v17</title>
<path fill="none" stroke="#000000" d="M619.2589,-865.3401C645.8557,-826.2943 715.2175,-726.26 780,-648 912.3493,-488.1164 1098,-513.5551 1098,-306 1098,-306 1098,-306 1098,-162 1098,-106.2924 1047.8502,-55.5183 1020.4245,-31.9164"/>
</g>
<!-- v3&#45;&#45;v18 -->
<g id="edge20" class="edge">
<title>v3&#45;&#45;v18</title>
<path fill="none" stroke="#000000" d="M581.3993,-878.0262C521.2554,-867.3806 380,-832.3364 380,-738 380,-738 380,-738 380,-378 380,-247.0625 380,-89.3365 380,-36.3577"/>
</g>
<!-- v4&#45;&#45;v15 -->
<g id="edge22" class="edge">
<title>v4&#45;&#45;v15</title>
<path fill="none" stroke="#000000" d="M248.1228,-799.0154C197.3869,-771.8143 76,-696.0694 76,-594 76,-594 76,-594 76,-162 76,-112.7962 105.1271,-60.3542 121.7386,-34.4469"/>
</g>
<!-- v4&#45;&#45;v16 -->
<g id="edge23" class="edge">
<title>v4&#45;&#45;v16</title>
<path fill="none" stroke="#000000" d="M272.8701,-791.8348C275.9931,-773.4876 281.5533,-744.4418 289,-720 346.8245,-530.2073 456,-504.406 456,-306 456,-306 456,-306 456,-162 456,-74.0936 582.9265,-35.7458 638.9526,-23.1008"/>
</g>
<!-- v4&#45;&#45;v17 -->
<g id="edge24" class="edge">
<title>v4&#45;&#45;v17</title>
<path fill="none" stroke="#000000" d="M293.9613,-801.2508C360.1409,-776.5713 549.9382,-702.2943 692,-612 714.4399,-597.7372 1060,-332.589 1060,-306 1060,-306 1060,-306 1060,-162 1060,-112.7962 1030.8729,-60.3542 1014.2614,-34.4469"/>
</g>
<!-- v4&#45;&#45;v18 -->
<g id="edge25" class="edge">
<title>v4&#45;&#45;v18</title>
<path fill="none" stroke="#000000" d="M261.5007,-792.7402C249.2281,-766.1829 228,-713.3958 228,-666 228,-666 228,-666 228,-162 228,-92.0249 313.9459,-45.8634 356.5831,-27.2683"/>
</g>
<!-- v5 -->
<g id="node16" class="node">
<title>v5</title>
<ellipse fill="none" stroke="#000000" cx="325" cy="-738" rx="27" ry="18"/>
<text text-anchor="middle" x="325" y="-733.8" font-family="Times,serif" font-size="14.00" fill="#000000">v5</text>
</g>
<!-- v4&#45;&#45;v5 -->
<g id="edge21" class="edge">
<title>v4&#45;&#45;v5</title>
<path fill="none" stroke="#000000" d="M282.4804,-793.6621C291.4814,-781.8788 303.5793,-766.0416 312.569,-754.2733"/>
</g>
<!-- v6&#45;&#45;v15 -->
<g id="edge28" class="edge">
<title>v6&#45;&#45;v15</title>
<path fill="none" stroke="#000000" d="M472.0937,-655.1576C421.1704,-629.0559 293.146,-558.1561 214,-468 99.8343,-337.9525 121.3692,-103.0707 130.2779,-36.2056"/>
</g>
<!-- v6&#45;&#45;v16 -->
<g id="edge29" class="edge">
<title>v6&#45;&#45;v16</title>
<path fill="none" stroke="#000000" d="M494,-647.8146C494,-620.4983 494,-567.25 494,-522 494,-522 494,-522 494,-378 494,-239.2365 471.4306,-182.0151 556,-72 576.5931,-45.2107 614.023,-30.8143 639.1994,-23.7842"/>
</g>
<!-- v6&#45;&#45;v17 -->
<g id="edge30" class="edge">
<title>v6&#45;&#45;v17</title>
<path fill="none" stroke="#000000" d="M520.4878,-662.4318C555.3827,-656.6797 617.4197,-642.7287 661,-612 709.873,-577.5393 955.2178,-233.468 982,-180 997.1067,-149.841 1000.5969,-141.2954 1006,-108 1008.5629,-92.2066 1006.4439,-87.9938 1006,-72 1005.6665,-59.9861 1004.9165,-46.4861 1004.2499,-35.9896"/>
</g>
<!-- v6&#45;&#45;v18 -->
<g id="edge31" class="edge">
<title>v6&#45;&#45;v18</title>
<path fill="none" stroke="#000000" d="M481.1604,-650.0652C455.6546,-617.67 398.2875,-540.9965 366,-468 322.479,-369.6067 304,-341.5886 304,-234 304,-234 304,-234 304,-162 304,-120.6022 307.6618,-108.0574 328,-72 336.8239,-56.3562 351.2451,-41.8866 362.6649,-31.8712"/>
</g>
<!-- v7 -->
<g id="node17" class="node">
<title>v7</title>
<ellipse fill="none" stroke="#000000" cx="625" cy="-594" rx="27" ry="18"/>
<text text-anchor="middle" x="625" y="-589.8" font-family="Times,serif" font-size="14.00" fill="#000000">v7</text>
</g>
<!-- v6&#45;&#45;v7 -->
<g id="edge27" class="edge">
<title>v6&#45;&#45;v7</title>
<path fill="none" stroke="#000000" d="M515.0474,-654.432C539.4934,-640.996 579.5811,-618.9631 604.0048,-605.5393"/>
</g>
<!-- v8&#45;&#45;v15 -->
<g id="edge34" class="edge">
<title>v8&#45;&#45;v15</title>
<path fill="none" stroke="#000000" d="M626.5053,-509.2093C557.0537,-462.8244 318.2727,-296.2474 176,-108 158.8767,-85.3433 146.0454,-54.7795 139.0344,-35.7378"/>
</g>
<!-- v8&#45;&#45;v16 -->
<g id="edge35" class="edge">
<title>v8&#45;&#45;v16</title>
<path fill="none" stroke="#000000" d="M646,-503.8146C646,-476.4983 646,-423.25 646,-378 646,-378 646,-378 646,-162 646,-116.3578 655.498,-63.2719 661.0632,-36.0844"/>
</g>
<!-- v8&#45;&#45;v17 -->
<g id="edge36" class="edge">
<title>v8&#45;&#45;v17</title>
<path fill="none" stroke="#000000" d="M669.0853,-512.2891C688.8898,-503.0935 717.2718,-487.7618 737,-468 876.7766,-327.9856 971.3884,-100.1118 996.3965,-35.5468"/>
</g>
<!-- v8&#45;&#45;v18 -->
<g id="edge37" class="edge">
<title>v8&#45;&#45;v18</title>
<path fill="none" stroke="#000000" d="M636.9973,-504.9422C596.2949,-427.822 429.6982,-112.165 389.0005,-35.0535"/>
</g>
<!-- v9 -->
<g id="node18" class="node">
<title>v9</title>
<ellipse fill="none" stroke="#000000" cx="701" cy="-450" rx="27" ry="18"/>
<text text-anchor="middle" x="701" y="-445.8" font-family="Times,serif" font-size="14.00" fill="#000000">v9</text>
</g>
<!-- v8&#45;&#45;v9 -->
<g id="edge33" class="edge">
<title>v8&#45;&#45;v9</title>
<path fill="none" stroke="#000000" d="M658.4804,-505.6621C667.4814,-493.8788 679.5793,-478.0416 688.569,-466.2733"/>
</g>
<!-- v10&#45;&#45;v15 -->
<g id="edge40" class="edge">
<title>v10&#45;&#45;v15</title>
<path fill="none" stroke="#000000" d="M701.8388,-365.7975C683.7913,-354.8671 656.6131,-338.389 633,-324 446.1494,-210.1393 220.4807,-71.6957 152.9889,-30.271"/>
</g>
<!-- v10&#45;&#45;v16 -->
<g id="edge41" class="edge">
<title>v10&#45;&#45;v16</title>
<path fill="none" stroke="#000000" d="M719.095,-359.6526C709.3171,-297.8976 677.6683,-98.0104 667.8992,-36.3104"/>
</g>
<!-- v10&#45;&#45;v17 -->
<g id="edge42" class="edge">
<title>v10&#45;&#45;v17</title>
<path fill="none" stroke="#000000" d="M743.773,-366.8622C791.633,-341.1419 906.0164,-272.6489 960,-180 987.5413,-132.7325 997.8215,-67.5215 1001.3396,-36.2131"/>
</g>
<!-- v10&#45;&#45;v18 -->
<g id="edge43" class="edge">
<title>v10&#45;&#45;v18</title>
<path fill="none" stroke="#000000" d="M707.559,-362.676C665.3006,-317.8522 538.1731,-183.1401 432,-72 419.5933,-59.0129 405.452,-44.3358 395.0514,-33.5645"/>
</g>
<!-- v11 -->
<g id="node19" class="node">
<title>v11</title>
<ellipse fill="none" stroke="#000000" cx="777" cy="-306" rx="27" ry="18"/>
<text text-anchor="middle" x="777" y="-301.8" font-family="Times,serif" font-size="14.00" fill="#000000">v11</text>
</g>
<!-- v10&#45;&#45;v11 -->
<g id="edge39" class="edge">
<title>v10&#45;&#45;v11</title>
<path fill="none" stroke="#000000" d="M734.4804,-361.6621C743.4814,-349.8788 755.5793,-334.0416 764.569,-322.2733"/>
</g>
<!-- v12&#45;&#45;v15 -->
<g id="edge46" class="edge">
<title>v12&#45;&#45;v15</title>
<path fill="none" stroke="#000000" d="M752.5408,-225.7963C650.4149,-191.5429 258.6597,-60.1467 157.1399,-26.0966"/>
</g>
<!-- v12&#45;&#45;v16 -->
<g id="edge47" class="edge">
<title>v12&#45;&#45;v16</title>
<path fill="none" stroke="#000000" d="M764.7096,-217.5339C757.2688,-207.1138 747.9135,-193.1684 741,-180 716.9841,-134.2565 721.1089,-118.2084 698,-72 691.5131,-59.0288 682.9421,-45.0772 676.1609,-34.6049"/>
</g>
<!-- v12&#45;&#45;v17 -->
<g id="edge48" class="edge">
<title>v12&#45;&#45;v17</title>
<path fill="none" stroke="#000000" d="M790.7659,-218.0203C816.9383,-188.0125 876.2516,-121.7751 932,-72 948.8659,-56.9413 969.5873,-41.4951 984.2808,-31.0013"/>
</g>
<!-- v12&#45;&#45;v18 -->
<g id="edge49" class="edge">
<title>v12&#45;&#45;v18</title>
<path fill="none" stroke="#000000" d="M757.9658,-221.2332C714.7002,-192.5076 605.1786,-121.4416 508,-72 472.5306,-53.9542 429.6097,-36.7379 403.5774,-26.7784"/>
</g>
<!-- v13 -->
<g id="node20" class="node">
<title>v13</title>
<ellipse fill="none" stroke="#000000" cx="777" cy="-162" rx="27" ry="18"/>
<text text-anchor="middle" x="777" y="-157.8" font-family="Times,serif" font-size="14.00" fill="#000000">v13</text>
</g>
<!-- v12&#45;&#45;v13 -->
<g id="edge45" class="edge">
<title>v12&#45;&#45;v13</title>
<path fill="none" stroke="#000000" d="M777,-215.8314C777,-205 777,-191.2876 777,-180.4133"/>
</g>
<!-- v14&#45;&#45;v15 -->
<g id="edge51" class="edge">
<title>v14&#45;&#45;v15</title>
<path fill="none" stroke="#000000" d="M750.148,-86.9979C645.4058,-75.2876 264.9098,-32.7477 159.9666,-21.0149"/>
</g>
<!-- v14&#45;&#45;v16 -->
<g id="edge52" class="edge">
<title>v14&#45;&#45;v16</title>
<path fill="none" stroke="#000000" d="M757.4911,-77.4586C737.0596,-64.324 705.1494,-43.8104 684.6611,-30.6393"/>
</g>
<!-- v14&#45;&#45;v17 -->
<g id="edge53" class="edge">
<title>v14&#45;&#45;v17</title>
<path fill="none" stroke="#000000" d="M799.3434,-79.5649C805.3395,-76.9373 811.8633,-74.232 818,-72 873.9687,-51.643 941.5459,-33.4882 977.53,-24.3149"/>
</g>
<!-- v14&#45;&#45;v18 -->
<g id="edge54" class="edge">
<title>v14&#45;&#45;v18</title>
<path fill="none" stroke="#000000" d="M750.6443,-85.2201C678.4281,-72.123 477.9844,-35.7705 406.0872,-22.7312"/>
</g>
<!-- v14&#45;&#45;v19 -->
<g id="edge55" class="edge">
<title>v14&#45;&#45;v19</title>
<path fill="none" stroke="#000000" d="M803.0406,-84.6815C850.1422,-75.0508 952.625,-54.0467 1039,-36 1058.7856,-31.8661 1081.147,-27.1281 1097.9667,-23.5511"/>
</g>
<!-- v2&#45;&#45;v3 -->
<g id="edge15" class="edge">
<title>v2&#45;&#45;v3</title>
<path fill="none" stroke="#000000" d="M650.5196,-937.6621C641.5186,-925.8788 629.4207,-910.0416 620.431,-898.2733"/>
</g>
<!-- v5&#45;&#45;v6 -->
<g id="edge26" class="edge">
<title>v5&#45;&#45;v6</title>
<path fill="none" stroke="#000000" d="M347.7921,-728.2898C380.0469,-714.5481 438.6774,-689.5694 471.0293,-675.7863"/>
</g>
<!-- v7&#45;&#45;v8 -->
<g id="edge32" class="edge">
<title>v7&#45;&#45;v8</title>
<path fill="none" stroke="#000000" d="M630.191,-576.2022C633.4218,-565.1252 637.5627,-550.928 640.7959,-539.8425"/>
</g>
<!-- v9&#45;&#45;v10 -->
<g id="edge38" class="edge">
<title>v9&#45;&#45;v10</title>
<path fill="none" stroke="#000000" d="M706.191,-432.2022C709.4218,-421.1252 713.5627,-406.928 716.7959,-395.8425"/>
</g>
<!-- v11&#45;&#45;v12 -->
<g id="edge44" class="edge">
<title>v11&#45;&#45;v12</title>
<path fill="none" stroke="#000000" d="M777,-287.8314C777,-277 777,-263.2876 777,-252.4133"/>
</g>
<!-- v13&#45;&#45;v14 -->
<g id="edge50" class="edge">
<title>v13&#45;&#45;v14</title>
<path fill="none" stroke="#000000" d="M777,-143.8314C777,-133 777,-119.2876 777,-108.4133"/>
</g>
<!-- IWO8 -->
<g id="node21" class="node">
<title>IWO8</title>
<ellipse fill="#ffff00" stroke="#000000" cx="928" cy="-1098" rx="32.415" ry="18"/>
<text text-anchor="middle" x="928" y="-1093.8" font-family="Times,serif" font-size="14.00" fill="#000000">IWO8</text>
</g>
<!-- V8 -->
<g id="node22" class="node">
<title>V8</title>
<ellipse fill="#ffff00" stroke="#000000" cx="1005" cy="-1098" rx="27" ry="18"/>
<text text-anchor="middle" x="1005" y="-1093.8" font-family="Times,serif" font-size="14.00" fill="#000000">V8</text>
</g>
</g>
</svg>
